<svg xmlns="http://www.w3.org/2000/svg" width="25" height="24" fill="none" viewBox="0 0 25 24">
  <path fill="#EEEDEE" d="m21.125 6.415-.132-.666c-.119-.598-.388-1.163-1-1.379-.198-.069-.42-.098-.57-.24-.153-.144-.197-.367-.232-.573-.065-.378-.125-.756-.192-1.133-.057-.325-.102-.69-.25-.987-.195-.4-.597-.634-.996-.788a5.99 5.99 0 0 0-.626-.194c-1-.263-2.05-.36-3.077-.416a26 26 0 0 0-3.7.062c-.915.083-1.88.184-2.75.5-.318.116-.646.256-.888.501-.297.302-.393.77-.177 1.146.154.267.415.456.692.58.36.162.737.284 1.123.366 1.075.238 2.19.331 3.287.37 1.22.05 2.436.01 3.65-.118.3-.033.598-.073.896-.119.352-.054.578-.513.474-.834-.124-.383-.457-.53-.834-.473-.466.074-.96.108-1.382.146-1.178.08-2.356.082-3.536.006a22.018 22.018 0 0 1-1.157-.107c-.086-.01-.18-.025-.258-.036a13.72 13.72 0 0 1-.724-.13c-.11-.027-.11-.185 0-.212h.005c.278-.06.557-.109.838-.147h.002c.131-.009.263-.032.394-.048a25 25 0 0 1 3.426-.12c.674.02 1.347.067 2.017.144l.228.031c.267.04.533.088.798.145.392.085.895.113 1.07.542.055.137.08.288.111.431l.32 1.484a.238.238 0 0 1-.2.284h-.003l-.112.015a37 37 0 0 1-4.743.295 37 37 0 0 1-4.699-.304c-.14-.017-.293-.042-.417-.06-.326-.048-.649-.108-.973-.16-.393-.066-.768-.033-1.123.16-.29.16-.527.404-.675.701-.154.316-.199.66-.267 1-.069.34-.176.707-.135 1.056.087.753.613 1.365 1.37 1.502a39.7 39.7 0 0 0 11.343.376.483.483 0 0 1 .535.53l-.07.697-1.019 9.907c-.04.41-.047.832-.125 1.237-.122.637-.553 1.028-1.182 1.171a8.24 8.24 0 0 1-1.756.205c-.656.004-1.31-.025-1.966-.022-.699.004-1.556-.06-2.095-.58-.475-.458-.54-1.174-.605-1.793l-.73-7.013-.323-3.094c-.037-.351-.286-.695-.678-.678-.336.015-.718.3-.678.679l.228 2.185.95 9.112c.146 1.344 1.173 2.068 2.445 2.272.742.12 1.503.144 2.257.156.966.016 1.942.053 2.892-.122 1.408-.258 2.465-1.198 2.616-2.657l1.024-9.995.215-2.087a.48.48 0 0 1 .39-.426c.402-.078.787-.212 1.074-.518.455-.488.546-1.123.385-1.765Zm-1.478.772c-.145.137-.363.201-.578.233-2.416.359-4.866.54-7.308.46-1.748-.06-3.477-.254-5.207-.498-.17-.024-.353-.055-.47-.18-.22-.236-.11-.71-.054-.995.052-.26.152-.609.463-.646.484-.057 1.046.148 1.526.22.577.088 1.156.159 1.737.212 2.48.226 5.002.19 7.472-.14.45-.06.899-.13 1.345-.21.4-.072.84-.206 1.08.206.166.281.188.657.162.974a.54.54 0 0 1-.169.364h.001Zm-6.159 3.9c-.862.37-1.84.788-3.109.788a5.995 5.995 0 0 1-1.569-.217l.877 9.004c.065.78.717 1.38 1.5 1.38 0 0 1.243.065 1.658.065.447 0 1.786-.065 1.786-.065.783 0 1.434-.6 1.5-1.38l.94-9.95a4.003 4.003 0 0 0-1.323-.238c-.826 0-1.49.284-2.26.613Z"/>
</svg>
